<?xml version="1.0" encoding="UTF-8" standalone="no"?>
<svg
   xmlns:dc="http://purl.org/dc/elements/1.1/"
   xmlns:cc="http://creativecommons.org/ns#"
   xmlns:rdf="http://www.w3.org/1999/02/22-rdf-syntax-ns#"
   xmlns:svg="http://www.w3.org/2000/svg"
   xmlns="http://www.w3.org/2000/svg"
   height="28.299999"
   width="58.420147"
   xml:space="preserve"
   viewBox="0 0 58.420146 28.299999"
   y="0px"
   x="0px"
   id="Layer_1"
   version="1.0"><metadata
   id="metadata13"><rdf:RDF><cc:Work
       rdf:about=""><dc:format>image/svg+xml</dc:format><dc:type
         rdf:resource="http://purl.org/dc/dcmitype/StillImage" /></cc:Work></rdf:RDF></metadata><defs
   id="defs11" />
<g
   transform="translate(-30.939853,-35.85)"
   id="g6">
	<path
   id="path2"
   d="m 45.33,36.29 c -0.12,-0.24 -0.41,-0.44 -0.68,-0.44 h -0.41 c -0.29,0 -0.56,0.2 -0.68,0.44 L 31.02,63.12 c -0.24,0.51 0.08,1.03 0.68,1.03 h 2.48 1.93 16.62 1.96 2.48 c 0.6,0 0.93,-0.52 0.69,-1.03 z M 39.57,58.72 44.4,48 h 0.04 l 4.88,10.72 z" />
	<path
   id="path4"
   d="m 88.6,48.15 h -6.57 c -0.37,0 -0.81,0.19 -1.07,0.52 L 75.04,56.2 V 54 48.14 42.1 h 13.55 c 0.44,0 0.76,-0.36 0.76,-0.75 V 37 c 0,-0.4 -0.32,-0.76 -0.76,-0.76 H 69.55 v 0.01 c -0.44,0 -0.76,0.36 -0.76,0.76 v 26.38 c 0,0.4 0.32,0.76 0.76,0.76 h 0.98 4.38 c 0.31,0 0.56,-0.21 0.64,-0.37 l 7.8,-9.77 h 5.25 c 0.4,0 0.76,-0.37 0.76,-0.76 v -4.34 c 0,-0.4 -0.36,-0.76 -0.76,-0.76 z" />
</g>
</svg>