<?xml version="1.0" encoding="UTF-8" standalone="no"?>
<svg
   xmlns:dc="http://purl.org/dc/elements/1.1/"
   xmlns:cc="http://creativecommons.org/ns#"
   xmlns:rdf="http://www.w3.org/1999/02/22-rdf-syntax-ns#"
   xmlns:svg="http://www.w3.org/2000/svg"
   xmlns="http://www.w3.org/2000/svg"
   xmlns:xlink="http://www.w3.org/1999/xlink"
   height="25.049999"
   width="258.00018"
   xml:space="preserve"
   viewBox="0 0 258.00019 25.049999"
   y="0px"
   x="0px"
   id="Layer_1"
   version="1.1"><metadata
   id="metadata46"><rdf:RDF><cc:Work
       rdf:about=""><dc:format>image/svg+xml</dc:format><dc:type
         rdf:resource="http://purl.org/dc/dcmitype/StillImage" /></cc:Work></rdf:RDF></metadata><defs
   id="defs44" />
<style
   id="style2"
   type="text/css">
	.st0{clip-path:url(#SVGID_2_);fill:url(#SVGID_3_);}
</style>
<g
   transform="translate(-37.399813,-37.5)"
   id="g39">
	<defs
   id="defs5">
		<path
   d="m 100.44,37.85 c -0.38,0 -0.66,0.32 -0.66,0.66 v 3.79 c 0,0.35 0.28,0.66 0.66,0.66 h 5 v 18.58 c 0,0.35 0.31,0.66 0.66,0.66 h 4.2 c 0.35,0 0.66,-0.31 0.66,-0.66 V 42.96 h 5 c 0.39,0 0.66,-0.31 0.66,-0.66 v -3.79 c 0,-0.35 -0.28,-0.66 -0.66,-0.66 z m 27.36,0 c -0.39,0 -0.66,0.32 -0.66,0.66 v 23.04 c 0,0.35 0.28,0.66 0.66,0.66 h 14.48 c 0.38,0 0.67,-0.31 0.67,-0.66 v -3.8 c 0,-0.35 -0.28,-0.66 -0.67,-0.66 h -9.69 v -4.7 h 7.98 c 0.35,0 0.66,-0.28 0.66,-0.66 v -3.79 c 0,-0.35 -0.31,-0.66 -0.66,-0.66 h -7.98 v -4.31 h 9.69 c 0.38,0 0.67,-0.31 0.67,-0.66 v -3.79 c 0,-0.35 -0.28,-0.66 -0.67,-0.66 H 127.8 Z m 135.67,0 c -0.39,0 -0.66,0.32 -0.66,0.66 V 52.6 c 0,2.44 -1.85,4.39 -4.37,4.39 -2.48,0 -4.3,-1.95 -4.3,-4.39 V 38.51 c 0,-0.35 -0.28,-0.66 -0.67,-0.66 h -4.3 c -0.35,0 -0.67,0.32 -0.67,0.66 v 14.37 c 0,5.29 4.44,9.67 9.94,9.67 5.53,0 10,-4.39 10,-9.67 V 38.51 c 0,-0.35 -0.32,-0.66 -0.66,-0.66 z m 15.74,0 c -0.38,0 -0.66,0.32 -0.66,0.66 v 3.79 c 0,0.35 0.28,0.66 0.66,0.66 h 5 v 18.58 c 0,0.35 0.32,0.66 0.67,0.66 h 4.2 c 0.35,0 0.66,-0.31 0.66,-0.66 V 42.96 h 5 c 0.39,0 0.66,-0.31 0.66,-0.66 v -3.79 c 0,-0.35 -0.28,-0.66 -0.66,-0.66 z m -208.11,0 c -0.39,0 -0.66,0.32 -0.66,0.66 v 23.04 c 0,0.35 0.28,0.66 0.66,0.66 h 0.86 v 0 h 3.82 c 0.27,0 0.49,-0.18 0.56,-0.32 l 6.81,-8.53 h 4.58 c 0.34,0 0.66,-0.32 0.66,-0.67 V 48.9 c 0,-0.35 -0.32,-0.66 -0.66,-0.66 H 82 c -0.32,0 -0.71,0.16 -0.93,0.45 l -5.17,6.58 v -1.92 -5.11 -5.28 h 11.83 c 0.39,0 0.67,-0.31 0.67,-0.66 v -3.8 c 0,-0.35 -0.28,-0.66 -0.67,-0.66 H 71.1 Z m 85.71,-0.18 c -0.39,0 -0.66,0.32 -0.66,0.67 V 42 c 0,0.34 0.27,0.66 0.66,0.66 h 8.49 c 1.43,0 2.66,1.18 2.66,2.64 0,1.46 -1.23,2.78 -2.66,2.78 h -8.49 c -0.39,0 -0.66,0.32 -0.66,0.66 v 3.65 c 0,0.15 0.06,0.29 0.15,0.41 l -0.01,0.01 0.03,0.03 c 0.01,0.01 0.02,0.02 0.03,0.03 l 9.04,8.95 c 0.14,0.14 0.32,0.21 0.51,0.21 h 5.64 c 0.66,0 0.98,-0.8 0.5,-1.25 l -8.25,-7.76 2.79,-0.01 c 3.81,-0.41 6.79,-3.61 6.79,-7.47 v -0.35 c 0,-4.14 -3.42,-7.52 -7.62,-7.52 z M 185.7,37.5 c -0.35,0 -0.67,0.28 -0.67,0.63 l 0.04,23.42 c 0,0.35 0.32,0.66 0.66,0.66 h 4.16 c 0.38,0 0.66,-0.31 0.66,-0.66 V 48.57 h 0.04 l 13.82,13.81 c 0.07,0.07 0.35,0.17 0.46,0.17 h 0.56 c 0.35,0 0.66,-0.28 0.66,-0.63 V 38.51 c 0,-0.35 -0.32,-0.66 -0.66,-0.66 h -4.2 c -0.39,0 -0.67,0.32 -0.67,0.66 v 12.35 h -0.04 L 186.57,37.5 Z M 49.15,48.11 h 0.04 l 4.26,9.36 H 44.93 Z M 49.01,37.5 c -0.25,0 -0.49,0.17 -0.59,0.39 L 37.47,61.31 c -0.21,0.44 0.07,0.9 0.59,0.9 h 2.17 1.69 14.51 1.71 2.17 c 0.52,0 0.81,-0.45 0.6,-0.9 L 49.95,37.89 C 49.85,37.68 49.6,37.5 49.36,37.5 Z m 178.63,10.61 h 0.04 l 4.26,9.36 h -8.52 z M 227.5,37.5 c -0.25,0 -0.49,0.17 -0.59,0.39 l -10.95,23.42 c -0.21,0.44 0.07,0.9 0.59,0.9 h 2.17 1.69 14.51 1.72 2.16 c 0.52,0 0.81,-0.45 0.6,-0.9 L 228.45,37.89 c -0.1,-0.21 -0.35,-0.39 -0.59,-0.39 z"
   id="SVGID_1_" />
	</defs>
	<clipPath
   id="SVGID_2_">
		<use
   height="100%"
   width="100%"
   y="0"
   x="0"
   id="use7"
   style="overflow:visible"
   xlink:href="#SVGID_1_" />
	</clipPath>
	
		<linearGradient
   gradientTransform="matrix(317.633,38.5763,38.5763,-317.633,66581.969,120355.42)"
   y2="348.22519"
   x2="-250.455"
   y1="348.22519"
   x1="-251.948"
   gradientUnits="userSpaceOnUse"
   id="SVGID_3_">
		<stop
   id="stop10"
   style="stop-color:#F9A233"
   offset="0" />
		<stop
   id="stop12"
   style="stop-color:#F7953A"
   offset="0.0379" />
		<stop
   id="stop14"
   style="stop-color:#F37A48"
   offset="0.1375" />
		<stop
   id="stop16"
   style="stop-color:#F16951"
   offset="0.2252" />
		<stop
   id="stop18"
   style="stop-color:#F06354"
   offset="0.2909" />
		<stop
   id="stop20"
   style="stop-color:#EF4E56"
   offset="0.3562" />
		<stop
   id="stop22"
   style="stop-color:#EE3A58"
   offset="0.4427" />
		<stop
   id="stop24"
   style="stop-color:#ED2B59"
   offset="0.5406" />
		<stop
   id="stop26"
   style="stop-color:#ED235A"
   offset="0.6583" />
		<stop
   id="stop28"
   style="stop-color:#ED205A"
   offset="0.8492" />
		<stop
   id="stop30"
   style="stop-color:#DD205C"
   offset="0.8686" />
		<stop
   id="stop32"
   style="stop-color:#7C2266"
   offset="0.9936" />
		<stop
   id="stop34"
   style="stop-color:#7C2266"
   offset="1" />
	</linearGradient>
	<polygon
   style="fill:url(#SVGID_3_)"
   id="polygon37"
   clip-path="url(#SVGID_2_)"
   points="291.65,93.45 34.26,62.19 41.01,6.61 298.41,37.87 "
   class="st0" />
</g>
</svg>