<?xml version="1.0" encoding="UTF-8" standalone="no"?>
<svg
   xmlns:dc="http://purl.org/dc/elements/1.1/"
   xmlns:cc="http://creativecommons.org/ns#"
   xmlns:rdf="http://www.w3.org/1999/02/22-rdf-syntax-ns#"
   xmlns:svg="http://www.w3.org/2000/svg"
   xmlns="http://www.w3.org/2000/svg"
   height="28.299999"
   width="58.420147"
   xml:space="preserve"
   viewBox="0 0 58.420146 28.299999"
   y="0px"
   x="0px"
   id="Layer_1"
   version="1.1"><metadata
   id="metadata9"><rdf:RDF><cc:Work
       rdf:about=""><dc:format>image/svg+xml</dc:format><dc:type
         rdf:resource="http://purl.org/dc/dcmitype/StillImage" /></cc:Work></rdf:RDF></metadata><defs
   id="defs7" />
<path
   id="path2"
   d="m 38.610147,0.4 c -0.44,0 -0.76,0.36 -0.76,0.76 v 26.38 c 0,0.4 0.32,0.76 0.76,0.76 h 0.98 v 0 h 4.38 c 0.31,0 0.56,-0.21 0.64,-0.37 l 7.8,-9.77 h 5.25 c 0.4,0 0.76,-0.37 0.76,-0.76 v -4.34 c 0,-0.4 -0.36,-0.76 -0.76,-0.76 h -6.57 c -0.37,0 -0.81,0.19 -1.07,0.52 l -5.92,7.53 v -2.2 -5.86 -6.04 h 13.55 c 0.44,0 0.76,-0.36 0.76,-0.75 V 1.15 c 0,-0.4 -0.32,-0.76 -0.76,-0.76 h -19.04 z m -25.15,11.75 h 0.04 l 4.88,10.72 H 8.6301465 Z M 13.300147,0 c -0.29,0 -0.56,0.2 -0.68,0.44 L 0.08014652,27.27 c -0.24,0.51 0.08,1.03 0.68,1.03 h 2.47999998 1.93 16.6200005 1.96 2.48 c 0.6,0 0.93,-0.52 0.69,-1.03 l -12.53,-26.83 c -0.12,-0.24 -0.41,-0.44 -0.68,-0.44 z" />
</svg>