{"asset":{"generator":"3D Builder","version":"2.0"},"scene":0,"scenes":[{"nodes":[0]}],"nodes":[{"mesh":0,"matrix":[0.99999922513961792,-5.5238950835700962E-7,-9.5696259450051E-6,0,-6.1183453681223909E-7,-0.99999773502349854,8.8214947027154267E-6,0,-9.4515789896831848E-6,-8.7621183411101811E-6,-0.99999713897705078,0,-25.579345703125,0.94138973951339722,-19.811452865600586,1]}],"meshes":[{"primitives":[{"attributes":{"POSITION":0,"TEXCOORD_0":3},"mode":4,"indices":6,"material":0},{"attributes":{"POSITION":1,"COLOR_0":4},"mode":4,"indices":7},{"attributes":{"POSITION":2,"COLOR_0":5},"mode":4,"indices":8}]}],"materials":[{"pbrMetallicRoughness":{"baseColorFactor":[1,1,1,1],"metallicFactor":0,"roughnessFactor":1,"baseColorTexture":{"index":0,"texCoord":0}},"alphaMode":"OPAQUE"}],"textures":[{"source":0,"sampler":0}],"images":[{"uri":"hello_Model_1_u0_v0.jpeg"}],"samplers":[{"magFilter":9729,"wrapS":33071,"wrapT":33071}],"accessors":[{"bufferView":0,"byteOffset":0,"count":467150,"componentType":5126,"type":"VEC3","min":[-13.79718017578125,-55.810920715332031,-34.255916595458984],"max":[58.497650146484375,0.94123440980911255,15.684333801269531]},{"bufferView":0,"byteOffset":5605800,"count":596,"componentType":5126,"type":"VEC3","min":[-13.79718017578125,-16.271289825439453,-34.255916595458984],"max":[58.497177124023438,0.94119745492935181,-34.255214691162109]},{"bufferView":0,"byteOffset":5612952,"count":225,"componentType":5126,"type":"VEC3","min":[58.497177124023438,-55.810894012451172,-34.255916595458984],"max":[58.497650146484375,0.94122105836868286,15.684333801269531]},{"bufferView":1,"byteOffset":0,"count":467150,"componentType":5126,"type":"VEC2"},{"bufferView":2,"byteOffset":0,"count":596,"componentType":5121,"type":"VEC4","normalized":true},{"bufferView":2,"byteOffset":2384,"count":225,"componentType":5121,"type":"VEC4","normalized":true},{"bufferView":3,"byteOffset":0,"count":2610501,"componentType":5125,"type":"SCALAR"},{"bufferView":3,"byteOffset":10442004,"count":1782,"componentType":5125,"type":"SCALAR"},{"bufferView":3,"byteOffset":10449132,"count":663,"componentType":5125,"type":"SCALAR"}],"bufferViews":[{"buffer":0,"byteOffset":0,"byteLength":5615652,"byteStride":12,"target":34962},{"buffer":0,"byteOffset":5615652,"byteLength":3737200,"byteStride":8,"target":34962},{"buffer":0,"byteOffset":9352852,"byteLength":3284,"byteStride":4,"target":34962},{"buffer":0,"byteOffset":9356136,"byteLength":10451784,"target":34963}],"buffers":[{"byteLength":19807920,"uri":"model.bin"}]}